<svg width="132" height="81" viewBox="0 0 132 81" fill="none" xmlns="http://www.w3.org/2000/svg">
<path d="M51.3701 42.848V24.1679C51.3701 22.2418 52.7949 20.3949 54.6418 20.1047C57.8343 19.577 59.8923 21.5295 59.9714 24.4317C60.077 29.4712 60.077 34.5106 60.1033 39.5764C60.1297 45.3545 60.1297 51.1327 60.1561 56.9109C60.1561 58.5203 59.734 59.9715 58.4147 60.9477C56.2248 62.5835 53.5864 61.9503 52.1353 59.7868C48.1248 53.7712 44.1936 47.6764 40.2095 41.6343C37.703 37.7822 35.1701 33.9301 32.6372 30.078C31.1333 27.7826 28.0463 27.5715 26.4369 29.6295C25.83 30.3946 25.7509 31.2917 25.7509 32.2415C25.7509 39.0223 25.83 45.8031 25.8037 52.5839C25.8037 55.3014 24.5636 57.5177 22.532 59.2327C18.3369 62.7682 12.1102 62.7155 7.94145 59.1272C5.96262 57.4122 4.88086 55.2751 4.88086 52.6102V33.2177C4.88086 32.0304 5.56685 31.6874 6.41115 31.6874H11.9783C12.8226 31.6611 13.2447 32.3207 13.2711 33.165C13.2711 36.9643 13.3766 46.8057 13.403 52.0298C13.403 53.4018 14.1418 54.1669 15.4082 54.1669C16.6747 54.1669 17.2551 53.4282 17.2287 52.2936C17.2287 45.6184 17.2287 38.9431 17.0968 32.2679C17.0177 26.4897 20.7115 22.4001 25.487 21.0545C30.7639 19.5506 35.434 20.6852 39.1541 24.8803C40.3151 26.1995 41.2121 27.7825 42.162 29.2601C45.0642 33.6663 47.9665 38.0725 50.8424 42.4786C50.948 42.6633 51.0799 42.8216 51.2118 42.9799C51.3173 42.9272 51.3701 42.9272 51.3965 42.9272V42.848H51.3701Z" fill="url(#paint0_linear_143_2)"/>
<path d="M5.03906 24.326C5.03906 22.0042 6.62212 20.3684 9.0231 20.4212C11.5296 20.4739 13.2974 22.1361 13.3501 24.326C13.3501 26.4368 11.3449 28.2309 9.0231 28.2309C6.70128 28.2309 5.03906 26.6743 5.03906 24.326Z" fill="url(#paint1_linear_143_2)"/>
<path d="M87.4117 37.6767C82.5042 37.6767 78.1772 37.6503 73.2433 37.6767C73.1114 37.6767 72.9531 37.6503 72.7156 37.6239V27.5451H90.9472C92.1873 27.5451 95.7492 28.02 100.604 25.1177C104.034 23.0597 103.77 20.7643 103.77 20.7643C103.77 20.7643 98.3085 20.6324 92.8469 20.6588H67.9401C65.4599 20.6588 64.0088 22.1099 64.0088 24.5636C64.0352 35.6979 64.0616 46.8057 64.1143 57.9135C64.1143 58.2829 64.1671 58.6786 64.2462 59.0216C64.7475 61.0268 66.0404 62.1086 67.7026 62.4252C69.5495 62.7682 71.2381 61.8975 72.1616 60.2881C72.6629 59.4174 72.7684 58.4939 72.7684 57.5177C72.742 53.1379 72.742 48.8109 72.7156 44.4575V43.6395C72.9795 43.6395 73.1642 43.6132 73.3752 43.5868C77.887 43.5604 82.4251 43.534 86.9368 43.4812C87.6756 43.4812 87.7019 37.6503 87.4381 37.6503L87.4117 37.6767Z" fill="url(#paint2_linear_143_2)"/>
<path d="M102.978 23.1392C93.137 23.1392 85.1689 31.1072 85.1689 40.9486C85.1689 50.79 93.137 58.7581 102.978 58.7581C112.82 58.7581 120.788 50.79 120.788 40.9486C120.788 31.1072 112.82 23.1392 102.978 23.1392ZM102.978 54.1408C95.6963 54.1408 89.7862 48.2307 89.7862 40.9486C89.7862 33.6665 95.6963 27.7564 102.978 27.7564C110.26 27.7564 116.171 33.6665 116.171 40.9486C116.171 48.2307 110.26 54.1408 102.978 54.1408Z" fill="url(#paint3_linear_143_2)"/>
<path d="M102.978 32.9541C98.5717 32.9541 94.9834 36.516 94.9834 40.9486C94.9834 45.3811 98.5453 48.943 102.978 48.943C107.41 48.943 110.972 45.3811 110.972 40.9486C110.972 36.516 107.41 32.9541 102.978 32.9541ZM102.978 44.9326C100.762 44.9326 98.9938 43.1385 98.9938 40.9486C98.9938 38.7587 100.788 36.9645 102.978 36.9645C105.168 36.9645 106.962 38.7587 106.962 40.9486C106.962 43.1385 105.168 44.9326 102.978 44.9326Z" fill="url(#paint4_linear_143_2)"/>
<path d="M79.4434 40.6318C79.4434 37.7031 82.5039 37.7031 86.2769 37.7031C90.0499 37.7031 93.1105 37.7031 93.1105 40.6318C93.1105 43.5605 90.0499 43.5605 86.2769 43.5605C82.5039 43.5605 79.4434 43.5605 79.4434 40.6318Z" fill="url(#paint5_linear_143_2)"/>
<path d="M112.846 40.9487C112.846 38.02 115.906 38.02 119.679 38.02C123.452 38.02 126.513 38.02 126.513 40.9487C126.513 43.8773 123.452 43.8773 119.679 43.8773C115.906 43.8773 112.846 43.8773 112.846 40.9487Z" fill="url(#paint6_linear_143_2)"/>
<path d="M102.978 17.3872C105.907 17.3872 105.907 20.4478 105.907 24.2208C105.907 27.9937 105.907 31.0543 102.978 31.0543C100.05 31.0543 100.05 27.9937 100.05 24.2208C100.05 20.4478 100.05 17.3872 102.978 17.3872Z" fill="url(#paint7_linear_143_2)"/>
<path d="M102.978 50.8164C105.907 50.8164 105.907 53.877 105.907 57.65C105.907 61.4229 105.907 64.4835 102.978 64.4835C100.05 64.4835 100.05 61.4229 100.05 57.65C100.05 53.877 100.05 50.8164 102.978 50.8164Z" fill="url(#paint8_linear_143_2)"/>
<defs>
<linearGradient id="paint0_linear_143_2" x1="4.22125" y1="40.8956" x2="127.172" y2="40.8956" gradientUnits="userSpaceOnUse">
<stop stop-color="#69E042"/>
<stop offset="0.5" stop-color="#00C18F"/>
<stop offset="1" stop-color="#0446F6"/>
</linearGradient>
<linearGradient id="paint1_linear_143_2" x1="4.93989" y1="24.3163" x2="126.908" y2="24.2733" gradientUnits="userSpaceOnUse">
<stop stop-color="#69E042"/>
<stop offset="0.5" stop-color="#00C18F"/>
<stop offset="1" stop-color="#0446F6"/>
</linearGradient>
<linearGradient id="paint2_linear_143_2" x1="5.01336" y1="40.3679" x2="126.381" y2="41.6871" gradientUnits="userSpaceOnUse">
<stop stop-color="#69E042"/>
<stop offset="0.5" stop-color="#00C18F"/>
<stop offset="1" stop-color="#0446F6"/>
</linearGradient>
<linearGradient id="paint3_linear_143_2" x1="4.48558" y1="40.8958" x2="126.645" y2="40.8958" gradientUnits="userSpaceOnUse">
<stop stop-color="#69E042"/>
<stop offset="0.5" stop-color="#00C18F"/>
<stop offset="1" stop-color="#0446F6"/>
</linearGradient>
<linearGradient id="paint4_linear_143_2" x1="5.01271" y1="40.8958" x2="126.935" y2="40.9486" gradientUnits="userSpaceOnUse">
<stop stop-color="#69E042"/>
<stop offset="0.5" stop-color="#00C18F"/>
<stop offset="1" stop-color="#0446F6"/>
</linearGradient>
<linearGradient id="paint5_linear_143_2" x1="5.01307" y1="40.6318" x2="126.935" y2="40.6318" gradientUnits="userSpaceOnUse">
<stop stop-color="#69E042"/>
<stop offset="0.5" stop-color="#00C18F"/>
<stop offset="1" stop-color="#0446F6"/>
</linearGradient>
<linearGradient id="paint6_linear_143_2" x1="4.74898" y1="42.2151" x2="126.539" y2="40.9487" gradientUnits="userSpaceOnUse">
<stop stop-color="#69E042"/>
<stop offset="0.5" stop-color="#00C18F"/>
<stop offset="1" stop-color="#0446F6"/>
</linearGradient>
<linearGradient id="paint7_linear_143_2" x1="5.27718" y1="24.2735" x2="128.545" y2="24.2208" gradientUnits="userSpaceOnUse">
<stop stop-color="#69E042"/>
<stop offset="0.5" stop-color="#00C18F"/>
<stop offset="1" stop-color="#0446F6"/>
</linearGradient>
<linearGradient id="paint8_linear_143_2" x1="5.01334" y1="57.7819" x2="128.545" y2="57.65" gradientUnits="userSpaceOnUse">
<stop stop-color="#69E042"/>
<stop offset="0.5" stop-color="#00C18F"/>
<stop offset="1" stop-color="#0446F6"/>
</linearGradient>
</defs>
</svg>
